# xmcd
#
# Track frame offsets:
#	150
#	14254
#	28726
#	48605
#	68810
#	83805
#	101881
#	115596
#	120235
#	132944
#	158348
#	170456
#	186952
#
# Disc length: 2718 seconds
#
# Revision: 2
# Processed by: cddbd v1.5.2PL0 Copyright (c) Steve Scherf et al.
# Submitted via: audiograbber 1.83.01
#
DISCID=a10a9c0d
DTITLE=Suzie Plakson - Good Luck Charm
DYEAR=2007
DGENRE=Country
TTITLE0=Good Luck Charm
TTITLE1=The Tennessee Rifle Companiy
TTITLE2=Mother Nature's Daughter
TTITLE3=You Are Not Alone
TTITLE4=Goin' Goin' Gone
TTITLE5=Flying Into The Flame
TTITLE6=If I Had A Boat
TTITLE7=Kindred Spirit
TTITLE8=I Envy The Wind
TTITLE9=Billy Boy Blue
TTITLE10=Golden Earrings
TTITLE11=Take You, Take Me
TTITLE12=At The End Of My Day
EXTD=
EXTT0=
EXTT1=
EXTT2=
EXTT3=
EXTT4=
EXTT5=
EXTT6=
EXTT7=
EXTT8=
EXTT9=
EXTT10=
EXTT11=
EXTT12=
PLAYORDER=
